<svg width="20" height="20" viewBox="0 0 20 20" fill="none" xmlns="http://www.w3.org/2000/svg"><path fill-rule="evenodd" clip-rule="evenodd" d="M11.712 2.79a1.854 1.854 0 0 1 2.623 0l1.673 1.672a1.854 1.854 0 0 1 0 2.623l-9.714 9.714a2.91 2.91 0 0 1-2.058.853H1.945a.8.8 0 0 1-.8-.8v-2.29c0-.773.307-1.513.853-2.058l9.714-9.715zm1.492 1.13c-.1-.1-.261-.1-.361 0l-1.327 1.326 2.035 2.035 1.327-1.326c.1-.1.1-.262 0-.362L13.204 3.92zm-.783 4.491l-2.035-2.034-7.258 7.257a1.31 1.31 0 0 0-.384.927v1.492h1.492c.348 0 .681-.138.927-.384l7.258-7.258z" fill="currentColor"></path><path fill-rule="evenodd" clip-rule="evenodd" d="M17.772 17.608c.35 0 .633-.283.633-.633v-.492a.633.633 0 0 0-.633-.633H9.858L8.1 17.608h9.672z" fill="currentColor"></path></svg>