<svg width="28" height="28" viewBox="0 0 28 28" fill="none" xmlns="http://www.w3.org/2000/svg"><path d="M4.27777 24.2888L23.7222 24.2888C24.4279 24.2888 25 23.7167 25 23.0111C25 22.3054 24.4279 21.7333 23.7222 21.7333L4.27777 21.7333C3.57208 21.7333 3 22.3054 3 23.0111C3 23.7167 3.57208 24.2888 4.27777 24.2888Z" fill="currentColor"></path><path d="M13.2407 15.4001L23.7222 15.4001C24.4279 15.4001 25 14.8281 25 14.1224C25 13.4167 24.4279 12.8446 23.7222 12.8446L13.2407 12.8446C12.535 12.8446 11.963 13.4167 11.963 14.1224C11.963 14.8281 12.535 15.4001 13.2407 15.4001Z" fill="currentColor"></path><path d="M4.27777 6.55542L23.7222 6.55542C24.4279 6.55542 25 5.98334 25 5.27765C25 4.57197 24.4279 3.99989 23.7222 3.99989L4.27777 3.99989C3.57208 3.99989 3 4.57197 3 5.27765C3 5.98334 3.57208 6.55542 4.27777 6.55542Z" fill="currentColor"></path></svg>