<svg viewBox="0 0 20 20" fill="none" xmlns="http://www.w3.org/2000/svg" xmlns:xlink="http://www.w3.org/1999/xlink"><defs><clipPath id="clip1258_20811"><rect id="重新生成" width="20.000000" height="20.000000" fill="white" fill-opacity="0"></rect></clipPath></defs><rect id="重新生成" width="20.000000" height="20.000000" fill="#FFFFFF" fill-opacity="0"></rect><g clip-path="url(#clip1258_20811)"><path id="path" d="M17.01 7.63L13.98 7.62C13.88 7.62 13.79 7.6 13.7 7.56C13.62 7.52 13.54 7.47 13.47 7.4C13.4 7.33 13.35 7.25 13.32 7.16C13.28 7.07 13.26 6.98 13.26 6.88C13.26 6.79 13.28 6.69 13.32 6.6C13.35 6.51 13.4 6.43 13.47 6.36C13.54 6.3 13.62 6.24 13.7 6.21C13.79 6.17 13.88 6.15 13.98 6.15L15.57 6.16C15.67 6.16 15.76 6.14 15.85 6.1C15.94 6.06 16.01 6.01 16.08 5.94C16.15 5.87 16.2 5.79 16.23 5.7C16.27 5.61 16.29 5.52 16.29 5.42L16.3 3.89C16.3 3.79 16.32 3.7 16.36 3.61C16.39 3.52 16.44 3.44 16.51 3.37C16.58 3.3 16.66 3.25 16.74 3.21C16.83 3.17 16.92 3.16 17.02 3.16C17.11 3.16 17.2 3.17 17.29 3.21C17.38 3.25 17.46 3.3 17.52 3.37C17.59 3.44 17.64 3.52 17.68 3.61C17.71 3.7 17.73 3.79 17.73 3.89L17.72 6.9C17.72 7 17.71 7.09 17.67 7.18C17.63 7.27 17.58 7.34 17.52 7.41C17.45 7.48 17.37 7.53 17.29 7.57C17.2 7.61 17.11 7.63 17.01 7.63Z" fill="currentColor" fill-opacity="1.000000" fill-rule="nonzero"></path><path id="path" d="M2.31 16.29L2.32 13.3C2.32 13.21 2.34 13.11 2.37 13.02C2.41 12.93 2.46 12.85 2.53 12.78C2.6 12.71 2.67 12.66 2.76 12.62C2.85 12.58 2.94 12.56 3.03 12.56L6.07 12.57C6.16 12.57 6.25 12.59 6.34 12.63C6.43 12.67 6.51 12.72 6.57 12.79C6.64 12.86 6.69 12.94 6.73 13.03C6.76 13.12 6.78 13.22 6.78 13.32C6.78 13.41 6.76 13.51 6.73 13.6C6.69 13.69 6.64 13.77 6.57 13.84C6.51 13.91 6.43 13.96 6.34 14C6.25 14.04 6.16 14.06 6.07 14.06L4.47 14.05C4.38 14.05 4.29 14.07 4.2 14.11C4.11 14.15 4.03 14.2 3.97 14.27C3.9 14.34 3.85 14.42 3.81 14.51C3.78 14.6 3.76 14.7 3.76 14.8L3.75 16.29C3.75 16.39 3.73 16.48 3.69 16.58C3.65 16.67 3.6 16.75 3.54 16.82C3.47 16.89 3.39 16.94 3.3 16.98C3.22 17.01 3.13 17.03 3.03 17.03C2.94 17.03 2.85 17.02 2.76 16.98C2.67 16.94 2.59 16.89 2.52 16.82C2.46 16.75 2.4 16.67 2.37 16.58C2.33 16.49 2.31 16.39 2.31 16.29Z" fill="currentColor" fill-opacity="1.000000" fill-rule="nonzero"></path><path id="path" d="M9.88 18.01C9.51 18.01 9.15 17.99 8.79 17.94C8.42 17.89 8.07 17.82 7.71 17.73C7.36 17.63 7.02 17.51 6.68 17.37C6.34 17.23 6.02 17.07 5.7 16.89C5.39 16.7 5.09 16.5 4.8 16.28C4.52 16.05 4.25 15.81 3.99 15.55C3.74 15.29 3.5 15.02 3.29 14.73C3.07 14.44 2.88 14.13 2.7 13.82L4.15 13.05C4.32 13.35 4.51 13.64 4.72 13.91C4.93 14.18 5.17 14.43 5.42 14.66C5.67 14.9 5.94 15.11 6.23 15.3C6.52 15.49 6.83 15.66 7.14 15.81C7.46 15.95 7.78 16.07 8.12 16.16C8.45 16.25 8.8 16.32 9.14 16.36C9.49 16.39 9.83 16.4 10.18 16.39C10.53 16.37 10.87 16.33 11.22 16.26C11.56 16.19 11.89 16.09 12.21 15.97C12.54 15.84 12.85 15.7 13.15 15.53C13.45 15.35 13.74 15.16 14.01 14.94C14.28 14.72 14.53 14.49 14.76 14.23C14.99 13.97 15.2 13.7 15.38 13.41C15.57 13.12 15.73 12.82 15.87 12.5C16 12.19 16.11 11.87 16.2 11.53C16.28 11.2 16.34 10.87 16.36 10.52C16.37 10.42 16.4 10.33 16.44 10.24C16.48 10.15 16.54 10.07 16.61 10C16.69 9.93 16.77 9.87 16.86 9.84C16.96 9.8 17.05 9.77 17.16 9.77C17.27 9.77 17.38 9.79 17.49 9.83C17.6 9.87 17.7 9.94 17.78 10.02C17.86 10.1 17.92 10.2 17.96 10.3C18 10.41 18.01 10.52 18 10.64C17.98 10.89 17.95 11.13 17.91 11.38C17.86 11.62 17.81 11.87 17.74 12.11C17.68 12.35 17.6 12.58 17.51 12.82C17.42 13.05 17.32 13.28 17.21 13.5C17.1 13.73 16.98 13.95 16.85 14.16C16.71 14.37 16.57 14.58 16.42 14.78C16.27 14.98 16.11 15.17 15.94 15.36C15.77 15.54 15.59 15.72 15.41 15.89C15.22 16.06 15.03 16.22 14.83 16.37C14.63 16.52 14.42 16.66 14.2 16.79C13.99 16.93 13.77 17.05 13.54 17.16C13.31 17.27 13.08 17.37 12.85 17.46C12.61 17.55 12.37 17.63 12.13 17.7C11.88 17.77 11.64 17.83 11.39 17.87C11.14 17.92 10.89 17.96 10.63 17.98C10.38 18 10.13 18.01 9.88 18.01Z" fill="currentColor" fill-opacity="1.000000" fill-rule="nonzero"></path><path id="path" d="M2.85 10.27C2.73 10.28 2.62 10.26 2.51 10.22C2.4 10.17 2.31 10.11 2.23 10.03C2.14 9.95 2.08 9.85 2.04 9.74C2 9.63 1.99 9.52 2 9.41C2.03 8.98 2.1 8.56 2.2 8.15C2.3 7.73 2.43 7.33 2.6 6.94C2.76 6.54 2.96 6.16 3.19 5.8C3.41 5.44 3.67 5.1 3.95 4.77C4.24 4.45 4.54 4.15 4.88 3.88C5.21 3.6 5.56 3.35 5.93 3.13C6.3 2.91 6.69 2.73 7.09 2.57C7.5 2.41 7.91 2.28 8.33 2.19C8.75 2.09 9.18 2.03 9.62 2.01C10.05 1.98 10.48 1.99 10.91 2.03C11.35 2.07 11.77 2.14 12.19 2.25C12.61 2.36 13.02 2.5 13.42 2.67C13.81 2.84 14.19 3.04 14.56 3.28C14.92 3.51 15.27 3.77 15.59 4.05C15.91 4.34 16.21 4.64 16.48 4.98C16.75 5.31 17 5.66 17.21 6.03L15.78 6.83C15.61 6.54 15.42 6.25 15.2 5.99C14.98 5.73 14.74 5.48 14.49 5.25C14.23 5.02 13.96 4.82 13.66 4.63C13.37 4.45 13.07 4.29 12.75 4.15C12.44 4.01 12.11 3.9 11.77 3.82C11.44 3.73 11.1 3.67 10.76 3.64C10.41 3.61 10.07 3.6 9.72 3.62C9.37 3.64 9.03 3.69 8.69 3.77C8.36 3.84 8.03 3.94 7.71 4.07C7.38 4.2 7.08 4.35 6.78 4.52C6.48 4.7 6.2 4.89 5.94 5.11C5.67 5.33 5.43 5.57 5.2 5.83C4.97 6.08 4.77 6.36 4.59 6.65C4.41 6.94 4.25 7.24 4.12 7.55C3.98 7.87 3.88 8.19 3.8 8.52C3.72 8.85 3.66 9.19 3.64 9.53C3.63 9.62 3.6 9.72 3.56 9.81C3.52 9.9 3.46 9.98 3.39 10.05C3.32 10.12 3.23 10.17 3.14 10.21C3.05 10.25 2.95 10.27 2.85 10.27Z" fill="currentColor" fill-opacity="1.000000" fill-rule="nonzero"></path></g></svg>